Coordinates
version=1
nRows=7
nColumns=46
inDegrees=yes

Units are S.I. units (second, meters, Newtons, ...)
Angles are in degrees.

endheader
time	pelvis_tilt	pelvis_list	pelvis_rotation	pelvis_tx	pelvis_ty	pelvis_tz	bb_angle	bb_tx	bb_ty	bb_tz	hip_flexion_r	hip_adduction_r	hip_rotation_r	knee_angle_r	knee_angle_r_beta	ankle_angle_r	subtalar_angle_r	mtp_angle_r	crank_angle_r	hip_flexion_l	hip_adduction_l	hip_rotation_l	knee_angle_l	knee_angle_l_beta	ankle_angle_l	subtalar_angle_l	mtp_angle_l	crank_angle_l	lumbar_extension	lumbar_bending	lumbar_rotation	arm_flex_r	arm_add_r	arm_rot_r	elbow_flex_r	pro_sup_r	wrist_flex_r	wrist_dev_r	arm_flex_l	arm_add_l	arm_rot_l	elbow_flex_l	pro_sup_l	wrist_flex_l	wrist_dev_l
      7.50500000	    -27.99673213	    -13.79093506	     -6.71992113	      0.44403390	      1.04642101	     -0.25852275	      0.00000000	      0.50000000	      0.00000000	      0.25000000	     68.53518338	      7.57718204	     -0.40729691	    112.89881563	      1.97045605	      5.03592402	      6.27989847	      0.00000000	      0.00000000	     37.03346178	    -19.33395426	      1.51873045	     33.63947606	      0.58711962	     -3.71445783	     -4.10180203	      0.00000000	      0.00000000	    -56.91571633	      4.38272314	      8.95404637	     38.88376062	    -17.96140744	     14.67481543	     91.85252187	     52.58505763	      0.00000000	      0.00000000	     28.10754712	    -21.11497123	     10.38083795	    105.23291329	     50.56798619	      0.00000000	      0.00000000
      7.51000000	    -28.13999930	    -13.81625537	     -7.33934825	      0.44414865	      1.04611866	     -0.25952423	      0.00000000	      0.50000000	      0.00000000	      0.25000000	     69.95141509	      7.69157118	     -0.34517937	    113.68106702	      1.98410892	      5.68715097	      6.46230531	      0.00000000	      0.00000000	     35.77021590	    -19.65508586	      0.92137553	     32.62354359	      0.56938825	     -4.72018293	     -3.33309440	      0.00000000	      0.00000000	    -56.97804120	      4.80960599	      9.48187959	     39.34484517	    -17.98447070	     14.84914536	     92.03619373	     52.62115553	      0.00000000	      0.00000000	     27.78694927	    -21.31032908	     10.12993538	    105.12704729	     50.52487779	      0.00000000	      0.00000000
      7.51500000	    -27.96184913	    -13.38330939	     -8.61671379	      0.44473800	      1.04664626	     -0.25922730	      0.00000000	      0.50000000	      0.00000000	      0.25000000	     71.01437451	      8.34195880	      0.50759311	    114.31945845	      1.99525095	      6.51198000	      7.32554203	      0.00000000	      0.00000000	     33.75805492	    -20.09916039	     -1.29289078	     31.50952844	      0.54994502	     -5.44023553	     -2.28657992	      0.00000000	      0.00000000	    -57.34798451	      4.35347534	      9.76306361	     39.90808971	    -17.98300509	     15.89032931	     92.23302289	     52.75997910	      0.00000000	      0.00000000	     27.09303370	    -21.64624366	      9.55276076	    104.85523018	     50.43094502	      0.00000000	      0.00000000
      7.52000000	    -28.04110596	    -13.14904969	     -9.64255818	      0.44533609	      1.04692927	     -0.25894754	      0.00000000	      0.50000000	      0.00000000	      0.25000000	     72.25387463	      8.91226182	      0.93665926	    114.74874304	      2.00274338	      7.22573182	      7.68352578	      0.00000000	      0.00000000	     32.32979628	    -20.59680557	     -3.26259377	     30.75684486	      0.53680821	     -5.78700072	     -1.35734610	      0.00000000	      0.00000000	    -57.48156952	      4.25221512	     10.21043997	     40.40517347	    -17.97563694	     16.67497087	     92.22917945	     52.83953238	      0.00000000	      0.00000000	     26.44943298	    -21.89179042	      9.16654654	    104.70393602	     50.37819311	      0.00000000	      0.00000000
      7.52500000	    -28.17563024	    -12.93864679	    -10.29057407	      0.44575252	      1.04752118	     -0.25960407	      0.00000000	      0.50000000	      0.00000000	      0.25000000	     73.44207938	      9.00067657	      1.09164211	    114.97260591	      2.00665052	      7.95714971	      7.88870992	      0.00000000	      0.00000000	     31.22274295	    -20.77246159	     -4.60069862	     30.16951541	      0.52655738	     -6.67126571	     -0.60089229	      0.00000000	      0.00000000	    -57.65112036	      4.55039015	     10.60623114	     40.93889913	    -17.92231989	     17.03711659	     92.41172230	     52.90096695	      0.00000000	      0.00000000	     26.00863760	    -21.96640484	      9.06691731	    104.41961970	     50.32811889	      0.00000000	      0.00000000
      7.53000000	    -28.18038225	    -12.64535914	    -11.04394535	      0.44654063	      1.04842803	     -0.26002928	      0.00000000	      0.50000000	      0.00000000	      0.25000000	     74.37371455	      9.20028912	      1.40202048	    115.06410967	      2.00824756	      8.89457633	      8.50258843	      0.00000000	      0.00000000	     29.94730757	    -20.95785693	     -6.34980867	     29.71252810	      0.51858144	     -7.33119680	      0.54295373	      0.00000000	      0.00000000	    -57.94672416	      4.60561310	     10.88975631	     41.49267264	    -18.07275251	     17.96751094	     92.50427200	     53.00924571	      0.00000000	      0.00000000	     25.60158101	    -22.01067987	      8.60408568	    103.97253096	     50.21684603	      0.00000000	      0.00000000
      7.53500000	    -28.23683051	    -12.30964623	    -11.68212894	      0.44719124	      1.04961002	     -0.26060246	      0.00000000	      0.50000000	      0.00000000	      0.25000000	     75.30139749	      9.27405543	      1.61162669	    114.96271246	      2.00647785	      9.62820152	      8.73211514	      0.00000000	      0.00000000	     28.88054963	    -20.99601693	     -7.90717838	     29.36370008	      0.51249325	     -8.21342640	      1.26333732	      0.00000000	      0.00000000	    -58.22765474	      4.77008401	     11.19516935	     42.05334562	    -18.12129365	     18.55939548	     92.66210260	     53.09030857	      0.00000000	      0.00000000	     25.36120442	    -21.90039696	      8.33515737	    103.51328008	     50.12168020	      0.00000000	      0.00000000
